<svg id="Layer_3" enable-background="new 0 0 64 64" height="512" viewBox="0 0 64 64" width="512" xmlns="http://www.w3.org/2000/svg"><path d="m12 33h40v5h-40z" fill="#f5b953"/><path d="m32 38-1.071-1.071c-1.875-1.875-4.419-2.929-7.071-2.929h-13.858v-32h13.858c2.652 0 5.196 1.054 7.071 2.929l1.071 1.071" fill="#c1c8d1"/><path d="m32 6 1.071-1.071c1.875-1.875 4.419-2.929 7.071-2.929h13.858v32h-13.858c-2.652 0-5.196 1.054-7.071 2.929l-1.071 1.071" fill="#758190"/><path d="m55 52h-39c-2.209 0-4 1.791-4 4v2c0 2.209 1.791 4 4 4h39" fill="#f5b953"/><path d="m9 42h39c2.209 0 4 1.791 4 4v2c0 2.209-1.791 4-4 4h-39" fill="#78b75b"/><path d="m16 42v6l4-2 4 2v-6" fill="#e47c6e"/><path d="m55 63h-39c-2.757 0-5-2.243-5-5v-2c0-2.757 2.243-5 5-5h39v2h-39c-1.654 0-3 1.346-3 3v2c0 1.654 1.346 3 3 3h39z"/><path d="m17 52h2v10h-2z"/><path d="m48 53h-39v-2h39c1.654 0 3-1.346 3-3v-2c0-1.654-1.346-3-3-3h-39v-2h39c2.757 0 5 2.243 5 5v2c0 2.757-2.243 5-5 5z"/><path d="m45 42h2v10h-2z"/><path d="m24 49c-.153 0-.306-.035-.447-.105l-3.553-1.777-3.553 1.776c-.309.154-.678.138-.973-.044-.294-.182-.474-.503-.474-.85v-6h2v4.382l2.553-1.276c.281-.141.613-.141.895 0l2.552 1.276v-4.382h2v6c0 .347-.18.668-.474.851-.161.099-.343.149-.526.149z"/><path d="m51 52h2v10h-2z"/><path d="m11 42h2v10h-2z"/><path d="m32 39c-.256 0-.512-.098-.707-.293l-1.071-1.071c-1.7-1.7-3.96-2.636-6.364-2.636h-13.858c-.552 0-1-.448-1-1v-32c0-.552.448-1 1-1h13.858c2.938 0 5.7 1.144 7.778 3.222l.364.364.364-.364c2.078-2.078 4.84-3.222 7.778-3.222h13.858c.552 0 1 .448 1 1v32c0 .552-.448 1-1 1h-13.858c-2.404 0-4.664.936-6.364 2.636l-1.071 1.071c-.195.195-.451.293-.707.293zm-21-6h12.858c2.938 0 5.7 1.144 7.778 3.222l.364.364.364-.364c2.078-2.078 4.84-3.222 7.778-3.222h12.858v-30h-12.858c-2.404 0-4.664.936-6.364 2.636l-1.071 1.071c-.391.391-1.023.391-1.414 0l-1.071-1.071c-1.7-1.7-3.96-2.636-6.364-2.636h-12.858z"/><path d="m13 5h12v2h-12z"/><path d="m13 9h12v2h-12z"/><path d="m13 13h12v2h-12z"/><path d="m13 17h16v2h-16z"/><path d="m13 21h16v2h-16z"/><path d="m39 13h12v2h-12z"/><path d="m39 17h12v2h-12z"/><path d="m39 21h12v2h-12z"/><path d="m35 25h16v2h-16z"/><path d="m35 29h16v2h-16z"/><path d="m52 39h-15v-2h14v-3h2v4c0 .552-.448 1-1 1z"/><path d="m27 39h-15c-.552 0-1-.448-1-1v-4h2v3h14z"/><path d="m31 6h2v31h-2z"/></svg>