<svg height="472pt" viewBox="0 0 472 472" width="472pt" xmlns="http://www.w3.org/2000/svg"><path d="m464 215.160156h-93.246094l5.246094-32h88zm0 0" fill="#7d8d9c"/><path d="m288 311.160156h72l16-128h-96zm0 0" fill="#143441"/><path d="m0 183.160156h96v128h-96zm0 0" fill="#143441"/><path d="m376 151.160156h-96v-96h96zm0 0" fill="#ffd782"/><path d="m0 47.160156h96v104h-96zm0 0" fill="#ffd782"/><path d="m160 127.160156c0 8.835938-7.164062 16-16 16s-16-7.164062-16-16c0-8.835937 7.164062-16 16-16s16 7.164063 16 16zm0 0" fill="#ffd782"/><path d="m360 311.160156v64h48v32h-80v-96zm0 0" fill="#995f5b"/><path d="m440 439.160156h-32v-64h32zm0 0" fill="#394d5c"/><path d="m376 87.160156h-96v-32h96zm0 0" fill="#394d5c"/><path d="m200 183.160156h112v32h-112zm0 0" fill="#7d8d9c"/><path d="m288 471.160156h-64v-32h64zm0 0" fill="#394d5c"/><path d="m288 439.160156 40-128h-40l-40 128zm0 0" fill="#d3843d"/><path d="m24 439.160156h80v32h-80zm0 0" fill="#394d5c"/><path d="m128 247.160156h-64v-32c0-8.835937-7.164062-16-16-16s-16 7.164063-16 16v64h96zm0 0" fill="#7d8d9c"/><path d="m0 47.160156h96v32h-96zm0 0" fill="#394d5c"/><path d="m24 311.160156h48v128h-48zm0 0" fill="#d3843d"/><path d="m96 215.160156h64v-56h-32v24h-32zm0 0" fill="#7d8d9c"/><path d="m176 263.160156c0 8.835938-7.164062 16-16 16s-16-7.164062-16-16c0-8.835937 7.164062-16 16-16s16 7.164063 16 16zm0 0" fill="#ffd782"/><g fill="#fcf05a"><path d="m432 335.160156h-16c.34375-6.464844-2.074219-12.769531-6.652344-17.347656s-10.882812-6.996094-17.347656-6.652344v-16c10.726562-.40625 21.140625 3.675782 28.730469 11.269532 7.59375 7.589843 11.675781 18.003906 11.269531 28.730468zm0 0"/><path d="m464 335.160156h-16c0-55.0625-53.734375-56-56-56v-16c24.902344 0 72 15.046875 72 72zm0 0"/><path d="m200 111.160156h-16c.34375-6.464844-2.074219-12.769531-6.652344-17.347656s-10.882812-6.996094-17.347656-6.652344v-16c10.726562-.40625 21.140625 3.675782 28.730469 11.269532 7.59375 7.589843 11.675781 18.003906 11.269531 28.730468zm0 0"/><path d="m232 111.160156h-16c0-55.0625-53.734375-56-56-56v-16c24.902344 0 72 15.046875 72 72zm0 0"/></g><path d="m411.574219 118.320312-7.148438-14.320312 11.574219-5.785156v-41.605469l56-11.210937v54.707031l-20.425781 10.214843-7.148438-14.320312 11.574219-5.785156v-25.292969l-24 4.789063v38.394531zm0 0" fill="#f98c96"/><path d="m139.574219 430.320312-7.148438-14.320312 11.574219-5.785156v-41.605469l56-11.210937v54.707031l-20.425781 10.214843-7.148438-14.320312 11.574219-5.785156v-25.292969l-24 4.789063v38.394531zm0 0" fill="#f98c96"/><path d="m211.574219 318.320312-7.148438-14.320312 11.574219-5.785156v-32l20.425781-10.214844 7.148438 14.320312-11.574219 5.785157v32zm0 0" fill="#f98c96"/><path d="m235.574219 62.320312-7.148438-14.320312 11.574219-5.785156v-32l20.425781-10.214844 7.148438 14.320312-11.574219 5.785157v32zm0 0" fill="#f98c96"/><path d="m136 319.160156h16v16h-16zm0 0" fill="#da1c4b"/><path d="m432 143.160156h16v16h-16zm0 0" fill="#da1c4b"/><path d="m232 135.160156h16v16h-16zm0 0" fill="#da1c4b"/></svg>